<mxfile host="app.diagrams.net" modified="2024-05-15T14:32:07.732Z" agent="Mozilla/5.0 (Windows NT 10.0; Win64; x64) AppleWebKit/537.36 (KHTML, like Gecko) Chrome/124.0.0.0 Safari/537.36" etag="R9755xG521TuZ9WYvCGV" version="24.4.0" type="device">
  <diagram name="Página-1" id="LE9VP0UaQYO9_7cgtTqc">
    <mxGraphModel dx="1434" dy="772" grid="1" gridSize="10" guides="1" tooltips="1" connect="1" arrows="1" fold="1" page="1" pageScale="1" pageWidth="827" pageHeight="1169" math="0" shadow="0">
      <root>
        <mxCell id="0" />
        <mxCell id="1" parent="0" />
        <mxCell id="8KB3UMSkED6dDdz_paTS-2" value="Pessoa" style="swimlane;whiteSpace=wrap;html=1;" parent="1" vertex="1">
          <mxGeometry x="40" y="440" width="200" height="200" as="geometry" />
        </mxCell>
        <mxCell id="8KB3UMSkED6dDdz_paTS-3" value="+Nome: string&lt;div&gt;+Sobrenome: string&lt;/div&gt;&lt;div&gt;+login: string&lt;/div&gt;&lt;div&gt;-senha: string&lt;/div&gt;&lt;div&gt;#tel: string&lt;/div&gt;&lt;div&gt;#ender: string&lt;/div&gt;" style="text;html=1;align=left;verticalAlign=middle;resizable=0;points=[];autosize=1;strokeColor=none;fillColor=none;" parent="8KB3UMSkED6dDdz_paTS-2" vertex="1">
          <mxGeometry x="35" y="35" width="130" height="100" as="geometry" />
        </mxCell>
        <mxCell id="8KB3UMSkED6dDdz_paTS-6" value="" style="rounded=0;whiteSpace=wrap;html=1;" parent="8KB3UMSkED6dDdz_paTS-2" vertex="1">
          <mxGeometry y="140" width="200" height="60" as="geometry" />
        </mxCell>
        <mxCell id="8KB3UMSkED6dDdz_paTS-7" value="Conta" style="swimlane;whiteSpace=wrap;html=1;" parent="1" vertex="1">
          <mxGeometry x="580" y="400" width="200" height="200" as="geometry" />
        </mxCell>
        <mxCell id="8KB3UMSkED6dDdz_paTS-8" value="&lt;ul&gt;&lt;li&gt;- saldo: float&lt;/li&gt;&lt;li&gt;- NumeroConta: string&lt;/li&gt;&lt;li&gt;- Agencia: string&lt;/li&gt;&lt;/ul&gt;" style="text;strokeColor=none;fillColor=none;html=1;whiteSpace=wrap;verticalAlign=middle;overflow=hidden;" parent="8KB3UMSkED6dDdz_paTS-7" vertex="1">
          <mxGeometry y="25" width="200" height="85" as="geometry" />
        </mxCell>
        <mxCell id="8KB3UMSkED6dDdz_paTS-9" value="" style="rounded=0;whiteSpace=wrap;html=1;" parent="8KB3UMSkED6dDdz_paTS-7" vertex="1">
          <mxGeometry y="140" width="200" height="60" as="geometry" />
        </mxCell>
        <mxCell id="8KB3UMSkED6dDdz_paTS-10" value="Fisico" style="swimlane;whiteSpace=wrap;html=1;" parent="1" vertex="1">
          <mxGeometry x="40" y="730" width="200" height="200" as="geometry" />
        </mxCell>
        <mxCell id="8KB3UMSkED6dDdz_paTS-11" value="&lt;ul&gt;&lt;li&gt;-CPF&lt;/li&gt;&lt;/ul&gt;" style="text;strokeColor=none;fillColor=none;html=1;whiteSpace=wrap;verticalAlign=middle;overflow=hidden;" parent="8KB3UMSkED6dDdz_paTS-10" vertex="1">
          <mxGeometry y="50" width="200" height="60" as="geometry" />
        </mxCell>
        <mxCell id="VVFoxm8zulYyaXYrkhxN-1" value="" style="rounded=0;whiteSpace=wrap;html=1;" vertex="1" parent="8KB3UMSkED6dDdz_paTS-10">
          <mxGeometry y="140" width="200" height="60" as="geometry" />
        </mxCell>
        <mxCell id="VVFoxm8zulYyaXYrkhxN-4" value="Jurídica" style="swimlane;whiteSpace=wrap;html=1;" vertex="1" parent="1">
          <mxGeometry x="40" y="120" width="200" height="200" as="geometry" />
        </mxCell>
        <mxCell id="VVFoxm8zulYyaXYrkhxN-6" value="&lt;ul&gt;&lt;li&gt;-CNPJ&lt;/li&gt;&lt;/ul&gt;" style="text;strokeColor=none;fillColor=none;html=1;whiteSpace=wrap;verticalAlign=middle;overflow=hidden;" vertex="1" parent="VVFoxm8zulYyaXYrkhxN-4">
          <mxGeometry x="50" y="40" width="100" height="80" as="geometry" />
        </mxCell>
      </root>
    </mxGraphModel>
  </diagram>
</mxfile>
